<?xml version="1.0" standalone="no"?> 
<!DOCTYPE svg PUBLIC "-//W3C//DTD SVG 1.0//EN" 
"http://www.w3.org/TR/2001/REC-SVG-20010904/DTD/svg10.dtd"> 

<svg width="1461.91468896px" height="1461.91468896px" viewBox="0 0 1461.91468896 1461.91468896" version="1.1" xmlns="http://www.w3.org/2000/svg">
  <defs>
    <filter id="Gamma">
      <feComponentTransfer>
        <feFuncR type="gamma" amplitude="1" exponent="0.3" offset="0" />
        <feFuncG type="gamma" amplitude="1" exponent="0.3" offset="0" />
        <feFuncB type="gamma" amplitude="1" exponent="0.3" offset="0" />
      </feComponentTransfer>
    </filter>
  </defs>

 <path d=" M 1195.80 283.27 L 1216.02 282.76 L 1247.17 279.61 L 1337.87 275.66 L 1339.06 301.29 L 1311.84 302.48 L 1238.89 305.24 L 1190.19 302.78 L 1175.59 283.79 z M 1352.07 734.68 L 1354.62 737.96 L 1361.91 728.15 L 1361.91 885.18 L 1242.04 888.91 L 1253.09 738.62 z M 1349.89 187.83 L 1361.91 100.00 L 1361.91 257.04 z M 1343.79 475.99 L 1343.00 443.66 L 1342.21 418.81 L 1341.42 390.42 L 1340.63 362.42 L 1339.06 301.29 L 1337.87 275.66 L 1335.50 205.07 L 1333.93 155.39 L 1349.89 187.83 L 1361.91 257.04 L 1361.91 414.07 L 1346.54 564.72 z M 1082.33 1129.03 L 1105.99 1128.24 L 1104.81 1089.59 L 1120.39 1107.53 L 1123.74 1203.95 L 1096.53 1201.98 L 1094.95 1143.62 L 1082.73 1144.01 z M 638.30 452.92 L 773.16 447.20 L 693.11 470.67 z M 397.75 100.97 L 394.26 100.00 L 532.50 100.00 z M 639.88 586.80 L 606.36 515.82 L 613.06 494.13 L 638.30 452.92 L 693.11 470.67 L 749.70 528.83 L 726.24 610.46 z M 1098.89 1018.21 L 1117.03 1011.12 L 1120.39 1107.53 L 1104.81 1089.59 L 1101.66 1089.59 z M 1361.91 571.11 L 1361.91 728.15 L 1354.62 737.96 L 1352.07 734.28 L 1347.73 605.73 L 1347.33 590.75 L 1346.54 564.72 z M 1361.91 100.00 L 1349.89 187.83 L 1333.93 155.39 z M 461.24 405.80 L 638.30 452.92 L 613.06 494.13 L 585.46 486.64 L 503.43 458.64 L 460.45 409.35 z M 693.11 470.67 L 773.16 447.20 L 749.70 528.83 z M 1223.68 100.00 L 1361.91 100.00 L 1333.93 155.39 L 1243.23 157.75 z M 1361.91 414.07 L 1361.91 571.11 L 1346.54 564.72 z M 1210.10 624.66 L 1209.31 594.69 L 1208.52 566.69 L 1248.75 609.28 L 1253.09 738.62 L 1242.04 888.91 L 1213.25 739.80 L 1210.10 633.34 z M 100.00 1113.08 L 100.00 988.67 L 138.27 999.68 L 174.55 1010.33 z M 310.60 186.93 L 209.65 157.75 L 182.43 149.86 L 181.65 151.84 L 125.65 136.85 L 119.34 134.88 L 111.85 132.91 L 103.96 130.54 L 100.00 129.51 L 100.00 100.00 L 197.33 100.00 L 194.66 109.64 L 210.83 114.37 L 202.94 142.77 L 217.14 146.71 L 217.93 143.95 L 220.69 133.70 L 248.29 141.19 L 252.24 142.38 L 256.18 143.55 L 285.36 151.84 L 287.33 145.13 L 315.72 152.23 L 310.60 169.98 L 344.12 179.05 z M 378.03 169.58 L 423.38 142.77 L 399.72 222.03 L 342.15 254.37 L 348.06 234.65 L 334.26 230.71 L 337.42 218.09 L 351.61 222.03 L 357.53 200.74 L 310.60 186.93 L 344.12 179.05 L 348.85 161.70 z M 1017.27 647.93 L 1026.73 637.08 L 989.66 632.94 L 996.36 632.55 L 1003.46 632.16 L 1090.22 629.00 L 1122.95 627.81 L 1210.10 624.66 L 1210.10 633.34 L 1178.55 634.12 L 1178.95 637.68 L 1179.34 656.21 L 1167.12 656.61 L 1165.93 638.07 L 1128.47 639.65 L 1128.86 657.79 L 1117.03 658.57 L 1100.87 658.97 L 1100.47 640.43 L 1085.88 641.22 L 1069.32 641.62 L 1070.11 660.55 L 1053.94 660.94 L 1018.06 662.52 z M 409.19 958.27 L 436.00 966.16 L 463.21 974.44 L 460.84 979.96 L 455.32 988.64 L 448.23 998.10 L 436.00 1014.27 L 364.23 1065.14 L 394.20 961.82 L 396.57 954.33 z M 1027.91 313.12 L 1020.42 313.12 L 1012.93 313.52 L 1005.04 313.91 L 997.55 313.91 L 988.48 314.31 L 978.62 314.70 L 979.80 343.10 L 981.78 402.64 L 845.49 398.70 L 814.57 338.36 L 825.22 303.66 L 946.87 303.37 L 1040.53 312.73 z M 488.45 512.27 L 503.43 458.64 L 585.46 486.64 L 579.15 508.33 L 606.36 515.82 L 639.88 586.80 L 616.22 592.32 L 476.62 604.94 L 464.79 601.40 L 440.34 511.49 L 443.89 499.65 z M 984.53 489.00 L 989.26 488.61 L 992.03 574.58 L 987.30 574.58 z M 566.53 652.66 L 571.66 635.70 L 616.22 592.32 L 601.23 645.56 L 529.86 811.57 z M 476.62 604.94 L 616.22 592.32 L 571.66 635.70 L 557.85 631.37 z M 1243.23 157.75 L 1245.59 207.44 L 1247.17 279.61 L 1216.02 282.76 L 1215.62 275.66 L 1215.62 275.61 L 1215.61 275.57 L 1215.60 275.27 L 1215.58 274.88 L 1215.50 273.30 L 1215.34 270.14 L 1215.29 268.96 L 1215.25 268.36 L 1215.24 268.07 L 1215.24 267.92 L 1215.23 267.85 L 1215.23 267.78 L 1215.20 266.99 L 1215.08 263.83 L 1214.83 257.52 L 1214.83 247.66 L 1214.44 241.35 L 1213.25 204.68 L 1213.25 192.45 L 1212.86 184.18 L 1212.86 175.89 L 1212.47 165.64 L 1212.07 158.94 L 1223.68 100.00 z M 1085.44 100.00 L 1223.68 100.00 L 1212.07 158.94 L 1197.19 159.59 L 1182.31 160.26 L 1167.43 160.91 L 1152.54 161.58 L 1150.68 161.66 L 1150.22 161.68 L 1149.98 161.69 L 1149.87 161.69 L 1149.81 161.70 L 1149.76 161.70 L 1148.82 161.72 L 1145.10 161.82 L 1137.65 162.03 L 1122.76 162.43 L 1121.86 162.46 L 1121.41 162.47 L 1121.19 162.48 L 1107.87 162.86 L 1092.98 163.27 L 1092.58 163.27 L 1062.82 164.43 z M 947.21 100.00 L 1085.44 100.00 L 1062.82 164.43 L 1062.36 164.45 L 1062.24 164.46 L 1062.12 164.46 L 1060.95 164.49 L 1055.37 164.64 L 1047.93 164.84 L 1033.04 165.25 L 1012.33 166.23 L 991.63 167.22 L 990.05 167.61 L 988.09 167.61 L 986.11 168.40 L 984.53 169.19 L 982.96 170.37 L 980.59 171.95 L 979.01 173.53 z M 1302.78 987.45 L 1317.76 986.67 L 1331.96 985.88 L 1331.17 942.50 L 1344.97 942.11 L 1346.15 980.75 L 1353.64 980.75 L 1354.04 989.82 L 1361.91 989.49 L 1361.91 1002.38 L 1239.47 1006.75 L 1235.74 993.76 L 1235.34 983.12 L 1290.55 981.54 L 1289.37 944.08 L 1301.59 943.29 z M 1094.56 485.06 L 1070.11 485.85 L 1068.92 456.67 L 1061.83 456.67 L 1061.43 443.66 L 1061.04 438.14 L 1085.49 437.35 L 1085.88 443.66 L 1086.27 455.88 L 1093.77 455.88 z M 1140.69 569.06 L 1120.59 569.85 L 1121.37 583.65 L 1108.76 584.44 L 1109.15 599.82 L 1109.54 615.59 L 1122.55 614.80 L 1122.95 627.81 L 1090.22 629.00 L 1089.83 606.13 L 1083.91 606.52 L 1083.52 592.72 L 1089.04 592.72 L 1088.64 570.64 L 1097.32 570.64 L 1096.53 542.24 L 1095.35 513.85 z M 1273.98 1198.82 L 1361.91 1195.75 L 1361.91 1278.83 L 1204.18 1361.91 z M 1120.19 743.36 L 1182.10 740.99 L 1213.25 739.80 L 1242.04 888.91 L 1122.16 892.64 L 1089.43 744.54 z M 601.23 645.56 L 703.76 675.53 L 700.22 686.58 L 529.86 811.57 z M 472.28 619.54 L 476.62 604.94 L 557.85 631.37 L 552.33 648.72 L 566.53 652.66 L 450.20 768.59 L 435.22 764.25 z M 1007.80 746.51 L 1012.53 747.30 L 1056.30 745.72 L 1089.43 744.54 L 1122.16 892.64 L 1002.28 896.36 L 1003.46 744.54 z M 215.89 780.65 L 223.45 754.40 L 236.85 707.87 L 222.27 703.53 L 100.00 521.84 L 100.00 375.07 L 105.93 412.50 L 161.14 428.27 L 167.06 447.99 L 161.14 469.29 L 152.07 466.53 L 135.11 526.86 L 159.56 533.57 L 159.96 533.57 L 187.17 541.46 L 213.19 548.55 L 238.04 555.65 L 264.86 563.14 L 293.25 723.64 L 253.81 712.60 L 249.87 726.01 L 232.91 785.55 z M 342.15 254.37 L 324.40 296.56 L 307.45 291.83 L 316.12 260.68 L 320.07 261.86 L 323.61 249.64 z M 1050.87 259.88 L 1058.42 259.67 L 1064.08 259.52 L 1064.55 259.51 L 1064.78 259.50 L 1064.90 259.49 L 1065.02 259.49 L 1065.96 259.46 L 1081.05 258.88 L 1096.14 258.31 L 1096.72 272.31 L 1097.32 286.31 L 1116.25 285.52 L 1115.46 267.38 L 1120.29 267.17 L 1122.70 267.06 L 1124.52 266.99 L 1124.55 266.99 L 1124.59 266.98 L 1124.66 266.98 L 1125.12 266.96 L 1134.78 266.59 L 1135.17 285.13 L 1145.28 284.70 L 1150.32 284.48 L 1152.85 284.37 L 1153.64 284.34 L 1153.72 284.34 L 1153.80 284.33 L 1154.12 284.33 L 1155.38 284.30 L 1175.59 283.79 L 1068.53 303.07 L 946.87 303.37 L 977.83 290.65 L 1021.90 288.87 L 1036.59 288.28 L 1035.78 260.28 z M 1190.19 302.78 L 1238.89 305.24 L 1240.86 365.18 L 1242.05 393.57 L 1242.83 421.57 L 1243.62 443.66 L 1244.80 479.94 L 1247.57 567.48 L 1248.35 593.90 L 1208.52 566.69 L 1094.56 485.06 L 1093.77 455.88 L 1092.58 426.31 L 1082.73 426.70 L 1081.94 398.30 L 1074.05 398.70 L 1072.08 339.94 L 1041.72 341.13 L 1040.53 312.73 L 1068.53 303.07 L 1175.59 283.79 z M 700.22 686.58 L 721.90 692.49 L 720.33 698.01 L 720.33 699.19 L 665.91 850.22 L 648.95 846.28 L 529.86 811.57 z M 435.22 764.25 L 413.52 837.24 L 396.96 832.48 L 414.71 772.93 L 418.65 759.92 L 472.28 619.54 z M 191.51 950.78 L 225.42 960.64 L 221.08 975.23 L 174.55 1010.33 z M 146.55 281.19 L 183.22 350.59 L 180.86 358.87 L 126.83 343.10 L 124.86 349.40 L 100.00 375.07 L 100.00 228.31 z M 278.66 461.40 L 256.97 488.22 L 255.39 494.13 L 230.55 487.43 L 204.92 480.33 L 195.45 477.57 L 200.97 457.85 L 182.83 452.72 L 167.06 447.99 L 161.14 428.27 z M 422.20 228.73 L 424.17 222.03 L 538.93 256.21 z M 311.39 985.49 L 345.30 995.34 L 327.95 1054.49 L 307.05 1000.07 z M 1361.91 1278.83 L 1361.91 1361.91 L 1204.18 1361.91 z M 1196.30 1201.98 L 1226.27 1200.40 L 1242.44 1199.61 L 1273.98 1198.82 L 1204.18 1361.91 L 1046.44 1361.91 z M 1123.74 1203.95 L 1196.30 1201.98 L 1046.44 1361.91 z M 1013.71 1204.74 L 1096.53 1201.98 L 1123.74 1203.95 L 1046.44 1361.91 L 888.70 1361.91 z M 257.74 1361.91 L 100.00 1361.91 L 100.00 1237.50 L 327.95 1054.49 z M 825.22 303.66 L 796.82 295.38 L 807.86 257.13 L 946.87 303.37 z M 803.13 708.26 L 796.82 706.29 L 804.71 680.66 L 820.48 685.00 L 827.98 687.36 L 835.47 689.33 z M 1117.03 1011.12 L 1090.42 987.26 L 1175.01 984.70 L 1175.40 995.74 L 1235.74 993.76 L 1239.47 1006.75 z M 865.84 613.62 L 834.29 604.55 L 865.84 490.19 L 989.66 632.94 L 874.51 636.49 L 872.54 636.10 L 860.71 632.55 z M 340.17 469.29 L 381.58 481.51 L 378.03 494.13 L 264.86 563.14 L 283.79 496.10 L 346.48 447.20 z M 460.84 447.20 L 450.59 444.05 L 460.45 409.35 L 503.43 458.64 z M 461.24 405.80 L 416.68 393.18 L 415.89 396.73 L 409.98 416.05 L 359.10 401.86 L 299.16 387.66 L 300.35 382.93 L 436.63 386.87 L 572.92 390.81 L 773.16 447.20 L 638.30 452.92 z M 639.88 586.80 L 636.33 597.84 L 616.22 592.32 z M 874.51 636.49 L 989.66 632.94 L 1026.73 637.08 L 1017.27 647.93 L 1003.46 648.32 L 996.76 648.72 L 990.05 648.72 z M 865.84 490.19 L 861.89 489.00 L 865.84 472.84 z M 845.49 398.70 L 981.78 402.64 L 982.56 430.25 L 983.74 459.43 L 983.74 459.82 L 984.53 489.00 z M 874.51 636.49 L 990.05 648.72 L 992.42 729.17 L 858.34 695.64 z M 222.27 703.53 L 100.00 668.60 L 100.00 521.84 z M 1005.83 989.82 L 1090.42 987.26 L 1117.03 1011.12 L 1098.89 1018.21 L 1070.50 1019.00 L 1042.51 1019.79 L 1007.01 1020.58 z M 808.97 100.00 L 947.21 100.00 L 979.01 173.53 L 977.43 175.50 L 976.25 177.87 L 975.07 181.41 L 975.07 191.37 L 975.07 191.51 L 975.09 192.63 L 975.13 194.87 L 975.19 199.36 L 975.47 217.30 L 976.10 235.64 L 976.42 244.80 L 976.58 249.39 L 976.62 250.53 L 976.65 251.11 L 976.65 251.25 L 976.65 251.39 L 976.66 251.68 L 976.73 253.97 L 977.28 272.31 z M 364.23 1065.14 L 436.00 1014.27 L 415.10 1079.34 z M 264.86 563.14 L 378.03 494.13 L 440.34 511.49 L 464.79 601.40 L 460.84 615.98 L 472.28 619.54 L 418.65 759.92 L 380.01 748.09 z M 829.16 882.56 L 815.36 878.22 L 798.01 873.88 L 858.34 695.64 L 992.42 729.17 L 993.61 732.31 L 995.57 735.86 L 998.73 740.20 L 1003.46 744.54 z M 845.49 398.70 L 984.53 489.00 L 987.30 574.58 z M 100.00 1113.08 L 174.55 1010.33 L 221.08 975.23 L 307.05 1000.07 L 327.95 1054.49 L 100.00 1237.50 z M 415.48 1361.91 L 257.74 1361.91 L 327.95 1054.49 L 364.23 1065.14 L 415.10 1079.34 L 420.23 1080.92 z M 573.22 1361.91 L 415.48 1361.91 L 420.23 1080.92 L 507.38 1106.55 L 521.18 1110.89 z M 730.96 1361.91 L 573.22 1361.91 L 521.18 1110.89 L 624.89 1141.25 L 680.89 1157.81 L 719.15 1168.85 L 792.88 1190.55 z M 888.70 1361.91 L 730.96 1361.91 L 792.88 1190.55 L 806.29 1194.09 L 814.96 1196.07 L 817.33 1196.46 L 836.26 1200.40 L 848.49 1202.77 L 875.30 1204.74 L 899.75 1206.32 L 911.18 1205.92 L 913.95 1206.32 z M 1013.71 1204.74 L 888.70 1361.91 L 913.95 1206.32 L 934.45 1187.39 L 1011.35 1146.38 z M 1011.35 1146.38 L 934.45 1187.39 L 929.33 1052.52 L 1007.01 1020.58 z M 1007.01 1020.58 L 929.33 1052.52 L 924.20 917.66 L 1005.83 989.82 z M 1002.28 896.36 L 1005.83 989.82 L 924.20 917.66 z M 1003.46 744.54 L 1002.28 896.36 L 924.20 917.66 L 829.16 882.56 z M 802.74 709.45 L 803.13 708.26 L 835.47 689.33 L 842.96 691.31 L 858.34 695.64 L 798.01 873.88 L 775.93 866.39 L 799.19 721.67 z M 720.33 699.19 L 799.19 721.67 L 775.93 866.39 L 757.39 861.26 L 747.53 858.11 L 740.83 856.53 L 730.58 855.35 z M 720.33 699.19 L 730.58 855.35 L 665.91 850.22 z M 566.53 652.66 L 529.86 811.57 L 516.84 805.66 L 450.20 768.59 z M 264.86 563.14 L 380.01 748.09 L 293.25 723.64 z M 1208.52 566.69 L 1140.69 569.06 L 1095.35 513.85 L 1094.56 485.06 z M 359.10 401.86 L 346.48 447.20 L 283.79 496.10 L 256.97 488.22 L 278.66 461.40 L 288.91 424.73 L 299.16 387.66 z M 342.15 254.37 L 399.72 222.03 L 422.20 228.73 L 324.40 296.56 z M 709.20 394.76 L 572.92 390.81 L 436.63 386.87 L 314.94 329.69 L 324.40 296.56 L 422.20 228.73 L 538.93 256.21 L 653.68 290.39 L 768.43 324.56 L 814.57 338.36 z M 670.73 100.00 L 808.97 100.00 L 977.28 272.31 L 977.83 290.65 z M 1354.62 737.96 L 1352.07 734.68 L 1352.07 734.28 z M 1248.35 593.90 L 1347.33 590.75 L 1347.73 605.73 L 1248.75 609.28 z M 1248.35 593.90 L 1248.75 609.28 L 1208.52 566.69 z M 946.87 303.37 L 1068.53 303.07 L 1040.53 312.73 z M 814.57 338.36 L 845.49 398.70 L 709.20 394.76 z M 314.94 329.69 L 436.63 386.87 L 300.35 382.93 L 183.22 350.59 L 230.74 305.44 z M 146.55 281.19 L 230.74 305.44 L 183.22 350.59 z M 845.49 398.70 L 987.30 574.58 L 989.66 632.94 L 865.84 472.84 z M 397.75 100.97 L 532.50 100.00 L 670.73 100.00 L 977.83 290.65 L 946.87 303.37 L 807.86 257.13 z M 397.75 100.97 L 807.86 257.13 L 679.70 219.01 z M 397.75 100.97 L 679.70 219.01 L 551.54 180.89 L 423.38 142.77 z M 378.03 169.58 L 397.75 100.97 L 423.38 142.77 z M 100.00 228.31 L 125.65 136.85 L 181.65 151.84 L 172.58 184.57 L 163.90 216.51 z M 100.00 228.31 L 163.90 216.51 L 146.55 281.19 z M 100.00 375.07 L 124.86 349.40 L 105.93 412.50 z M 861.50 471.65 L 841.39 466.13 L 773.16 447.20 L 572.92 390.81 L 709.20 394.76 L 845.49 398.70 L 865.84 472.84 z M 865.84 490.19 L 865.84 472.84 L 989.66 632.94 z M 100.00 782.81 L 180.86 806.05 L 174.55 827.35 L 185.92 830.88 L 167.45 895.97 L 100.00 882.19 L 104.75 847.85 L 157.59 863.24 L 162.72 845.89 L 109.87 830.11 L 107.51 837.60 L 104.75 847.85 L 100.00 882.19 z M 167.45 895.97 L 166.27 900.70 L 100.00 882.19 z"
 style="fill:#138013; fill-opacity:0.38; fill-rule:evenodd; stroke:#003300; stroke-opacity:1.00; stroke-width:0.60;" filter="url(#Gamma)"/>

</svg>
